<?xml version="1.0" encoding="UTF-8"?>
<svg width="14px" height="15px" viewBox="0 0 14 15" version="1.1" xmlns="http://www.w3.org/2000/svg" xmlns:xlink="http://www.w3.org/1999/xlink">
    <!-- Generator: Sketch 53.1 (72631) - https://sketchapp.com -->
    <title></title>
    <desc>Created with Sketch.</desc>
    <g id="Page-1" stroke="none" stroke-width="1" fill="none" fill-rule="evenodd">
        <path d="M11.0000129,7.85713673 L11.0000129,6.71427822 C11.0000129,6.40177785 10.7410841,6.14284897 10.4285837,6.14284897 L8.14286668,6.14284897 L8.14286668,3.85713196 C8.14286668,3.54463159 7.8839378,3.28570271 7.57143743,3.28570271 L6.42857892,3.28570271 C6.11607855,3.28570271 5.85714967,3.54463159 5.85714967,3.85713196 L5.85714967,6.14284897 L3.57143266,6.14284897 C3.25893229,6.14284897 3.00000341,6.40177785 3.00000341,6.71427822 L3.00000341,7.85713673 C3.00000341,8.1696371 3.25893229,8.42856598 3.57143266,8.42856598 L5.85714967,8.42856598 L5.85714967,10.714283 C5.85714967,11.0267834 6.11607855,11.2857122 6.42857892,11.2857122 L7.57143743,11.2857122 C7.8839378,11.2857122 8.14286668,11.0267834 8.14286668,10.714283 L8.14286668,8.42856598 L10.4285837,8.42856598 C10.7410841,8.42856598 11.0000129,8.1696371 11.0000129,7.85713673 Z M13.8571592,7.28570747 C13.8571592,11.0714263 10.785727,14.1428585 7.00000817,14.1428585 C3.21428938,14.1428585 0.142857143,11.0714263 0.142857143,7.28570747 C0.142857143,3.49998868 3.21428938,0.428556442 7.00000817,0.428556442 C10.785727,0.428556442 13.8571592,3.49998868 13.8571592,7.28570747 Z" id="" fill="#4095A8" fill-rule="nonzero"></path>
    </g>
</svg>